<svg version="1.0" xmlns="http://www.w3.org/2000/svg"
 width="512.000000pt" height="512.000000pt" viewBox="0 0 512.000000 512.000000"
 preserveAspectRatio="xMidYMid meet">

<g transform="translate(0.000000,512.000000) scale(0.100000,-0.100000)"
fill="#ffffff" stroke="none">
<path d="M2517 5106 c-30 -23 -37 -74 -37 -286 0 -212 7 -263 37 -286 42 -32
97 -9 113 47 6 19 10 126 10 239 0 113 -4 220 -10 239 -11 39 -35 60 -70 60
-14 0 -33 -6 -43 -13z"/>
<path d="M1855 4820 c-66 -26 -62 -70 20 -211 71 -123 94 -149 132 -149 30 0
73 42 73 72 0 23 -120 240 -149 269 -21 22 -51 29 -76 19z"/>
<path d="M3210 4817 c-30 -15 -170 -250 -170 -285 0 -30 43 -72 73 -72 14 0
34 8 46 18 32 27 152 242 153 274 2 52 -56 88 -102 65z"/>
<path d="M1152 4634 c-16 -11 -22 -25 -22 -52 0 -35 11 -49 178 -215 157 -156
181 -177 210 -177 42 0 72 30 72 73 0 29 -20 52 -178 210 -151 151 -182 177
-207 177 -17 0 -41 -7 -53 -16z"/>
<path d="M3707 4472 c-156 -157 -177 -181 -177 -210 0 -19 8 -40 20 -52 12
-12 33 -20 52 -20 29 0 53 21 210 177 167 166 178 180 178 215 0 43 -27 68
-75 68 -26 0 -56 -25 -208 -178z"/>
<path d="M2139 4092 c-34 -17 -65 -44 -84 -71 -28 -39 -30 -50 -30 -126 0 -76
2 -87 30 -126 45 -64 118 -99 206 -99 l69 0 0 -74 0 -74 -67 -7 c-110 -10
-242 -34 -338 -60 -477 -130 -893 -471 -1115 -915 -122 -243 -176 -461 -187
-752 -5 -126 -9 -158 -20 -158 -8 0 -35 -21 -61 -47 -67 -67 -86 -138 -61
-228 14 -51 93 -130 146 -144 21 -6 128 -11 239 -11 188 0 202 1 222 20 30 28
30 82 0 110 -20 19 -34 20 -220 20 -198 0 -199 0 -223 25 -32 31 -32 69 0 100
l24 25 1891 0 1891 0 24 -25 c32 -31 32 -69 0 -100 l-24 -25 -1544 0 c-1539 0
-1543 0 -1565 -20 -30 -28 -30 -82 0 -110 21 -20 33 -20 470 -20 l448 0 0 -75
0 -75 -680 0 c-456 0 -696 -4 -732 -11 -178 -37 -330 -189 -367 -367 -6 -29
-11 -107 -11 -172 0 -146 -18 -204 -83 -268 -47 -46 -127 -82 -183 -82 -42 0
-84 -37 -84 -75 0 -14 11 -37 25 -50 l24 -25 1876 0 1876 0 24 25 c32 31 32
69 0 100 l-24 25 -1702 0 c-1620 0 -1701 1 -1686 18 21 23 77 143 77 165 0 16
100 17 1950 17 1850 0 1950 -1 1950 -17 0 -22 56 -142 77 -165 15 -17 6 -18
-176 -18 -190 0 -192 0 -216 -25 -14 -13 -25 -36 -25 -50 0 -14 11 -37 25 -50
l24 -25 366 0 366 0 24 25 c14 13 25 36 25 50 0 38 -42 75 -84 75 -56 0 -136
36 -183 82 -65 64 -83 122 -83 268 0 65 -5 143 -11 172 -37 178 -189 330 -367
367 -36 7 -276 11 -732 11 l-680 0 0 75 0 75 796 0 c599 0 807 3 838 12 25 8
59 31 86 58 94 94 93 217 -2 313 -26 26 -53 47 -61 47 -11 0 -15 32 -20 158
-11 291 -65 509 -187 752 -162 324 -440 607 -761 774 -225 118 -413 172 -696
201 l-63 7 0 74 0 74 68 0 c89 0 163 35 207 98 27 40 30 51 30 127 0 76 -3 87
-30 127 -20 28 -49 52 -84 71 l-55 27 -367 0 -367 0 -53 -28z m789 -142 c14
-14 22 -33 22 -55 0 -22 -8 -41 -22 -55 -21 -19 -33 -20 -368 -20 -335 0 -347
1 -368 20 -14 14 -22 33 -22 55 0 22 8 41 22 55 21 19 33 20 368 20 335 0 347
-1 368 -20z m-298 -355 l0 -75 -70 0 -70 0 0 75 0 75 70 0 70 0 0 -75z m301
-239 c454 -61 855 -302 1117 -672 194 -272 302 -609 302 -940 l0 -94 -1791 0
-1792 0 6 143 c14 346 114 637 317 919 68 95 263 285 370 360 213 151 477 252
750 287 113 15 603 12 721 -3z m-221 -2231 l0 -75 -150 0 -150 0 0 75 0 75
150 0 150 0 0 -75z m1596 -253 c28 -13 72 -44 97 -70 62 -63 89 -128 95 -224
l5 -78 -1943 0 -1943 0 5 78 c9 153 92 263 233 308 32 10 385 12 1720 11
l1680 -2 51 -23z"/>
</g>
</svg>