<svg version="1.0" xmlns="http://www.w3.org/2000/svg"
 width="512.000000pt" height="512.000000pt" viewBox="0 0 512.000000 512.000000"
 preserveAspectRatio="xMidYMid meet">

<g transform="translate(0.000000,512.000000) scale(0.100000,-0.100000)"
fill="#ffffff" stroke="none">
<path d="M1111 4613 c-222 -266 -331 -409 -331 -435 0 -29 1 -30 313 -388
l135 -155 -101 -33 c-137 -43 -341 -146 -457 -229 -116 -83 -264 -230 -349
-343 -469 -633 -417 -1507 123 -2068 247 -257 515 -405 866 -479 68 -14 130
-18 310 -18 196 1 237 4 320 23 205 48 379 120 538 222 l82 52 82 -52 c155
-100 325 -171 518 -217 129 -30 411 -43 555 -24 367 48 690 213 956 488 339
351 498 833 434 1315 -71 538 -396 993 -885 1238 -436 219 -963 222 -1405 10
-55 -26 -135 -71 -177 -99 l-78 -51 -77 51 c-106 69 -257 141 -380 179 -57 18
-103 35 -103 39 1 3 100 119 220 256 188 214 220 255 220 282 0 27 -27 65
-156 225 -86 106 -171 208 -187 226 l-31 32 -457 0 -458 0 -40 -47z m215 -145
c-7 -24 -26 -82 -41 -130 l-29 -88 -119 0 c-68 0 -117 4 -115 9 2 5 47 64 101
130 l98 121 59 0 59 0 -13 -42z m437 -77 c20 -65 37 -123 37 -130 0 -8 -54
-11 -190 -11 -149 0 -190 3 -190 13 0 10 52 173 75 235 3 8 36 12 118 12 l114
0 36 -119z m302 42 c33 -41 80 -100 104 -130 l43 -54 -123 3 -122 3 -43 128
-43 127 62 0 62 -1 60 -76z m-781 -405 c77 -218 124 -359 117 -356 -9 3 -371
417 -371 424 0 2 51 4 114 4 l114 0 26 -72z m516 66 c0 -6 -119 -355 -135
-396 -5 -14 -19 -18 -55 -18 l-47 0 -68 198 c-37 108 -70 203 -73 210 -3 9 38
12 187 12 105 0 191 -3 191 -6z m213 -209 c-103 -118 -189 -213 -191 -210 -2
2 28 99 68 214 l73 211 118 0 119 0 -187 -215z m-267 -366 c133 -12 283 -47
390 -89 476 -189 799 -576 910 -1090 15 -66 19 -128 19 -275 0 -210 -16 -310
-77 -484 -35 -100 -123 -275 -174 -345 l-36 -49 -60 60 -60 60 55 91 c85 141
153 325 172 459 6 47 4 54 -19 78 -32 32 -75 33 -103 2 -11 -12 -26 -50 -32
-85 -23 -121 -103 -324 -157 -396 -14 -20 -14 -20 -29 0 -28 36 -103 199 -124
269 -71 232 -67 483 11 712 31 93 107 244 125 250 14 5 89 -131 122 -222 26
-73 50 -170 66 -268 11 -70 74 -100 125 -59 27 22 29 71 5 188 -24 117 -60
215 -120 333 -305 593 -1006 851 -1632 601 -100 -40 -188 -90 -284 -161 -80
-60 -99 -82 -99 -119 0 -28 43 -70 72 -70 13 0 62 28 109 63 214 158 436 232
694 230 134 0 260 -21 368 -60 87 -31 227 -100 227 -112 0 -4 -21 -39 -46 -77
-104 -158 -191 -369 -236 -574 -19 -90 -22 -134 -22 -315 0 -180 3 -225 22
-312 46 -210 130 -413 235 -571 l55 -82 -63 -35 c-87 -49 -204 -90 -327 -116
-144 -29 -358 -23 -501 14 -193 51 -375 156 -518 297 -384 382 -446 971 -151
1434 38 59 39 74 11 110 -23 29 -72 36 -102 14 -25 -19 -111 -168 -146 -252
-287 -690 72 -1484 779 -1720 142 -47 258 -66 410 -66 220 0 394 41 588 140
l117 60 57 -57 c32 -32 58 -60 58 -63 0 -12 -163 -103 -254 -141 -203 -84
-372 -114 -614 -107 -296 9 -521 82 -773 249 -115 76 -292 250 -373 367 -323
461 -352 1074 -74 1559 235 410 658 686 1123 732 118 12 160 12 281 0z m2054
-23 c544 -111 985 -529 1120 -1061 134 -528 -19 -1059 -414 -1432 -188 -179
-425 -304 -690 -365 -114 -26 -385 -36 -508 -19 -612 87 -1092 537 -1230 1152
-31 139 -33 436 -5 569 27 125 74 264 122 362 41 84 135 238 145 238 3 0 32
-27 64 -59 l58 -59 -30 -43 c-77 -114 -155 -302 -189 -462 -25 -116 -25 -389
1 -507 53 -245 165 -456 334 -631 110 -115 211 -191 338 -256 131 -67 219 -98
356 -124 97 -18 136 -21 278 -16 169 5 248 19 391 68 205 70 489 269 489 342
0 35 -40 77 -73 77 -15 0 -55 -26 -107 -69 -213 -177 -424 -258 -696 -268
-220 -8 -417 36 -588 131 l-64 36 55 82 c107 163 190 362 235 571 19 87 22
132 22 312 0 181 -3 225 -22 315 -45 207 -122 395 -226 555 -31 47 -56 90 -56
95 0 5 35 27 78 49 265 132 536 161 821 86 527 -140 890 -665 833 -1208 -16
-150 -50 -266 -117 -402 -69 -138 -71 -165 -12 -190 48 -20 78 -3 119 68 251
433 214 995 -90 1404 -157 210 -389 376 -637 456 -263 85 -574 82 -827 -9 -81
-29 -198 -86 -242 -117 l-28 -20 -62 62 -61 62 25 19 c43 33 211 117 295 148
248 91 532 112 795 58z"/>
</g>
</svg>
